<svg xmlns="http://www.w3.org/2000/svg" xmlns:xlink="http://www.w3.org/1999/xlink" width="1032" height="120"><defs><symbol id="a"><path fill-rule="evenodd" clip-rule="evenodd" d="M11.8.603a.5.5 0 00-.8.4v2H1a1 1 0 100 2h10v2a.5.5 0 00.8.4l3.997-3a.5.5 0 000-.8l-3.997-3zM5 13.003v2a.5.5 0 01-.8.4l-3.997-3a.5.5 0 010-.8l3.997-3a.5.5 0 01.8.4v2h10a1 1 0 010 2H5z"/></symbol><symbol id="b"><path fill-rule="evenodd" clip-rule="evenodd" d="M7 0a3 3 0 00-3 3v7a3 3 0 106 0V3a3 3 0 00-3-3zM0 10a1 1 0 112 0 5 5 0 0010 0 1 1 0 112 0 7.001 7.001 0 01-6 6.93V19a1 1 0 11-2 0v-2.07A7.001 7.001 0 010 10z"/></symbol><symbol id="c"><path fill-rule="evenodd" clip-rule="evenodd" d="M4.093 12H1.5A1.5 1.5 0 010 10.5v-3A1.5 1.5 0 011.5 6h2.593L9.274.531C9.896-.125 11 .315 11 1.22v15.562c0 .904-1.104 1.344-1.726.688L4.093 12zm12.978 4.07a1 1 0 11-1.414-1.413A7.97 7.97 0 0018 9a7.97 7.97 0 00-2.343-5.656 1 1 0 111.415-1.415A9.97 9.97 0 0120 9a9.97 9.97 0 01-2.929 7.07zm-3.673-3.269a1 1 0 001.4-.198A5.978 5.978 0 0016 9a5.977 5.977 0 00-1.197-3.596 1 1 0 00-1.6 1.2C13.718 7.29 14 8.122 14 9c0 .88-.284 1.714-.8 2.401a1 1 0 00.198 1.4z"/></symbol><symbol id="d"><path fill-rule="evenodd" clip-rule="evenodd" d="M15.207 2.207A1 1 0 0013.793.793L8 6.586 2.207.793A1 1 0 00.793 2.207L6.586 8 .793 13.793a1 1 0 101.414 1.414L8 9.414l5.793 5.793a1 1 0 001.414-1.414L9.414 8l5.793-5.793z"/></symbol><symbol id="e"><path fill-rule="evenodd" clip-rule="evenodd" d="M5 2h7.795c1.114 0 1.519.116 1.926.334.408.218.727.538.945.945.218.407.334.811.334 1.926V13a1 1 0 102 0V5.128c0-1.783-.186-2.43-.534-3.082A3.635 3.635 0 0015.954.534C15.302.186 14.655 0 12.872 0H5a1 1 0 000 2zM3.205 4c-.882 0-1.393.049-1.926.334a2.272 2.272 0 00-.945.945C.049 5.812 0 6.323 0 7.205v7.59c0 .882.049 1.393.334 1.926.218.407.538.727.945.945.533.285 1.044.334 1.926.334h7.59c.882 0 1.393-.049 1.926-.334.408-.218.727-.538.945-.945.285-.534.334-1.044.334-1.926v-7.59c0-.882-.049-1.393-.334-1.926a2.272 2.272 0 00-.945-.945C12.187 4.049 11.677 4 10.795 4h-7.59zm-.983 2.098a.52.52 0 01.197-.062c.138-.021.363-.036.786-.036h7.59c.423 0 .648.015.786.036a.52.52 0 01.197.062.275.275 0 01.124.124.52.52 0 01.062.197c.021.138.036.363.036.786v7.59c0 .423-.015.648-.036.786a.52.52 0 01-.062.197.275.275 0 01-.124.124.52.52 0 01-.197.062c-.138.021-.363.036-.786.036h-7.59c-.423 0-.648-.015-.786-.036a.52.52 0 01-.197-.062.275.275 0 01-.124-.124.52.52 0 01-.062-.197c-.021-.138-.036-.363-.036-.786v-7.59c0-.423.015-.648.036-.786a.52.52 0 01.062-.197.275.275 0 01.124-.124z"/></symbol><symbol id="f"><path d="M8 .75A2 2 0 006.15 2h-2.4A3.758 3.758 0 000 5.75v8.5A3.758 3.758 0 003.75 18H4v.25A3.758 3.758 0 007.75 22h8.5A3.758 3.758 0 0020 18.25v-8.5A3.758 3.758 0 0016.25 6H16v-.25A3.758 3.758 0 0012.25 2h-2.4A2 2 0 008 .75zM3.75 3.5h.32A1.99 1.99 0 006 5h4a1.99 1.99 0 001.93-1.5h.32c1.26 0 2.25.99 2.25 2.25V6H7.75A3.758 3.758 0 004 9.75v6.75h-.25a2.23 2.23 0 01-2.25-2.25v-8.5A2.23 2.23 0 013.75 3.5zm4 4h8.5c1.259 0 2.25.99 2.25 2.25v8.5a2.23 2.23 0 01-2.25 2.25h-8.5a2.23 2.23 0 01-2.25-2.25v-8.5c0-1.259.99-2.25 2.25-2.25zm1 2.75c-1.014-.014-1.014 1.514 0 1.5h6.5c1.014.014 1.014-1.514 0-1.5h-6.5zm0 3c-1.014-.014-1.014 1.514 0 1.5h6.5c1.014.014 1.014-1.514 0-1.5h-6.5zm0 3c-1.014-.014-1.014 1.514 0 1.5h4.5c1.014.014 1.014-1.514 0-1.5h-4.5z"/></symbol><symbol id="g"><path d="M5.293 6.707A1 1 0 006 7h7a1 1 0 100-2H6a1 1 0 00-.707 1.707z"/><path fill-rule="evenodd" clip-rule="evenodd" d="M3 0C1.355 0 0 1.355 0 3v16c0 1.645 1.355 3 3 3h14a1 1 0 000-2H3c-.566 0-1-.434-1-1 0-.566.434-1 1-1h14a1 1 0 001-1V1a1 1 0 00-1-1H3zm0 2h13v14H3c-.342.004-.68.068-1 .188V3c0-.566.434-1 1-1z"/></symbol><symbol id="h"><path fill-rule="evenodd" clip-rule="evenodd" d="M8 3H6.205c-1.115 0-1.519.116-1.926.334a2.272 2.272 0 00-.945.945C3.116 4.686 3 5.09 3 6.205v11.59c0 1.114.116 1.519.334 1.926.218.407.538.727.945.945.407.218.811.334 1.926.334h11.59c1.114 0 1.519-.116 1.926-.334.407-.218.727-.538.945-.945.218-.407.334-.811.334-1.926V6.205c0-1.115-.116-1.519-.334-1.926a2.272 2.272 0 00-.945-.945C19.314 3.116 18.91 3 17.795 3H8zm0 2H6.205c-.427 0-.694.019-.849.049a.353.353 0 00-.134.049.275.275 0 00-.124.124.353.353 0 00-.049.134c-.03.155-.049.422-.049.849V7h3V5zm0 4H5v2h3V9zm8 2V9h3v2h-3zm-8 2H5v2h3v-2zm8 2v-2h3v2h-3zm-8 2H5v.795c0 .427.019.694.049.849.012.06.017.074.049.134a.275.275 0 00.124.125c.06.031.073.036.134.048.155.03.422.049.849.049H8v-2zm8 2v-2h3v.795c0 .427-.019.694-.049.849a.353.353 0 01-.049.134.275.275 0 01-.124.125.353.353 0 01-.134.048c-.155.03-.422.049-.849.049H16zm0-12V5h1.795c.427 0 .694.019.849.049.06.012.074.017.134.049a.275.275 0 01.125.124c.031.06.036.073.048.134.03.155.049.422.049.849V7h-3z"/></symbol><symbol id="i"><path fill-rule="evenodd" clip-rule="evenodd" d="M9 1.181a.75.75 0 011.177-.616l4.432 3.068a.75.75 0 010 1.234l-4.432 3.068A.75.75 0 019 7.32V5a7 7 0 107 7 1 1 0 012 0 9 9 0 11-9-9V1.181z"/></symbol><symbol id="j"><path d="M12 14.586l6.293-6.293a1 1 0 111.414 1.414l-6.646 6.647a1.5 1.5 0 01-2.122 0L4.293 9.707a1 1 0 011.414-1.414L12 14.586z"/></symbol><symbol id="k"><path d="M11.51 8.63L6.3 13.85l1.42 1.42 7.63-7.64L7.71 0 6.29 1.41l5.22 5.22H0v2h11.51z"/></symbol></defs><use xlink:href="#a" x="8" y="8" fill-opacity=".65"/><use xlink:href="#a" x="8" y="38"/><use xlink:href="#b" x="35" y="2" fill-opacity=".65"/><use xlink:href="#b" x="35" y="32"/><use xlink:href="#b" x="35" y="62" fill="#c9c9c9"/><use xlink:href="#c" x="62" y="3" fill-opacity=".65"/><use xlink:href="#c" x="62" y="33"/><use xlink:href="#c" x="62" y="63" fill="#c9c9c9"/><use xlink:href="#c" x="62" y="93" fill="navy"/><use xlink:href="#d" x="94" y="4" fill-opacity=".65"/><use xlink:href="#d" x="94" y="34"/><use xlink:href="#e" x="122" y="3" fill-opacity=".65"/><use xlink:href="#e" x="122" y="33"/><use xlink:href="#f" x="152" fill-opacity=".65"/><use xlink:href="#f" x="152" y="30"/><use xlink:href="#g" x="183" fill-opacity=".65"/><use xlink:href="#g" x="183" y="30"/><use xlink:href="#h" x="210" fill-opacity=".65"/><use xlink:href="#h" x="210" y="30"/><use xlink:href="#i" x="243" fill-opacity=".65"/><use xlink:href="#i" x="243" y="30"/><use xlink:href="#j" x="270"/><use xlink:href="#k" x="300" y="1" fill="navy"/><use xlink:href="#k" x="300" y="31" fill="#d00"/></svg>